<?xml version="1.0" encoding="utf-8"?>
<COLLADA xmlns="http://www.collada.org/2005/11/COLLADASchema" version="1.4.1">
  <asset>
    <contributor>
      <author/>
      <authoring_tool>FBX COLLADA exporter</authoring_tool>
      <comments/>
    </contributor>
    <created>2019-08-02T21:09:20Z</created>
    <keywords/>
    <modified>2019-08-02T21:09:20Z</modified>
    <revision/>
    <subject/>
    <title/>
    <unit meter="0.010000" name="centimeter"/>
    <up_axis>Z_UP</up_axis>
  </asset>
  <library_images>
    <image id="Entrance_ncl1_2-image" name="Entrance_ncl1_2">
      <init_from>../materials/textures/Entrance.jpg</init_from>
    </image>
  </library_images>
  <library_materials>
    <material id="Entrance_ncl1_1" name="Entrance_ncl1_1">
      <instance_effect url="#Entrance_ncl1_1-fx"/>
    </material>
  </library_materials>
  <library_effects>
    <effect id="Entrance_ncl1_1-fx" name="Entrance_ncl1_1">
      <profile_COMMON>
        <technique sid="standard">
          <phong>
            <emission>
              <color sid="emission">0.000000  0.000000 0.000000 1.000000</color>
            </emission>
            <ambient>
              <color sid="ambient">0.588235  0.588235 0.588235 1.000000</color>
            </ambient>
            <diffuse>
              <texture texture="Entrance_ncl1_2-image" texcoord="CHANNEL0">
                <extra>
                  <technique profile="MAYA">
                    <wrapU sid="wrapU0">TRUE</wrapU>
                    <wrapV sid="wrapV0">TRUE</wrapV>
                    <blend_mode>ADD</blend_mode>
                  </technique>
                </extra>
              </texture>
            </diffuse>
            <specular>
              <color sid="specular">0.000000  0.000000 0.000000 1.000000</color>
            </specular>
            <shininess>
              <float sid="shininess">2.000000</float>
            </shininess>
            <reflective>
              <color sid="reflective">0.000000  0.000000 0.000000 1.000000</color>
            </reflective>
            <reflectivity>
              <float sid="reflectivity">1.000000</float>
            </reflectivity>
            <transparent opaque="RGB_ZERO">
              <color sid="transparent">1.000000  1.000000 1.000000 1.000000</color>
            </transparent>
            <transparency>
              <float sid="transparency">0.000000</float>
            </transparency>
          </phong>
        </technique>
      </profile_COMMON>
    </effect>
  </library_effects>
  <library_geometries>
    <geometry id="Entrance-lib" name="EntranceMesh">
      <mesh>
        <source id="Entrance-POSITION">
          <float_array id="Entrance-POSITION-array" count="336">
0.000000 -58.229900 -0.000026
-213.595016 -58.229900 -0.000026
-236.173080 -58.229908 27.103422
-240.799988 -58.229916 74.081169
-236.173157 -58.229919 121.058563
-222.470322 -58.229935 166.231018
-200.218063 -58.229939 207.862213
-170.271515 -58.229939 244.352234
-133.781555 -58.229939 274.298889
-92.150414 -58.229946 296.551270
-46.977997 -58.229946 310.254211
-222.981369 -58.229916 7.568619
-358.264832 -83.243416 -0.000003
-345.299622 -58.229939 405.342285
-378.632721 -45.590412 0.000000
-345.299622 -23.605066 405.342285
-669.330505 133.086060 0.000000
-494.454834 133.085999 488.627930
0.000000 0.000015 -0.000023
-213.595016 0.000015 -0.000023
-236.173080 0.000004 27.103424
-240.799988 0.000000 74.081169
-236.173157 -0.000004 121.058563
-222.470322 -0.000021 166.231018
-200.218063 -0.000024 207.862213
-170.271515 -0.000027 244.352234
-133.781555 -0.000029 274.298889
-92.150414 -0.000031 296.551270
-46.977997 -0.000032 310.254211
-222.981369 0.000000 7.568614
-244.206284 133.085983 586.059814
-600.709778 133.086029 244.867081
0.000000 -182.785797 -0.000026
-213.595016 -172.094391 -0.000026
-289.244049 -136.723282 -0.000003
-345.299591 -58.229908 56.666866
-345.299591 -23.605036 72.955009
-615.056091 133.086044 92.316643
-273.521088 -58.229908 14.474322
-253.694290 -58.229908 -0.000020
-315.599762 -71.740402 7.213636
-287.819183 -79.593796 4.934610
-272.519196 -88.781258 -0.000012
0.000000 -0.000033 314.881195
0.000000 -58.229954 405.342285
236.173080 0.000004 27.103424
240.799988 0.000000 74.081169
240.799988 -58.229916 74.081169
236.173080 -58.229908 27.103422
236.173157 -0.000004 121.058563
236.173157 -58.229919 121.058563
222.470322 -0.000021 166.231018
222.470322 -58.229935 166.231018
200.218063 -0.000024 207.862213
200.218063 -58.229939 207.862213
170.271515 -0.000027 244.352234
170.271515 -58.229939 244.352234
133.781555 -0.000029 274.298889
133.781555 -58.229939 274.298889
92.150414 -0.000031 296.551270
92.150414 -58.229946 296.551270
46.977997 -0.000032 310.254211
46.977997 -58.229946 310.254211
0.000000 -58.229946 314.881195
222.981369 0.000000 7.568614
222.981369 -58.229916 7.568619
213.595016 0.000015 -0.000023
213.595016 -58.229900 -0.000026
345.299622 -58.229939 405.342285
253.694290 -58.229908 -0.000020
358.264832 -83.243416 -0.000003
345.299591 -58.229908 56.666866
345.299591 -23.605036 72.955009
378.632721 -45.590412 0.000000
0.000000 -23.605080 405.342285
345.299622 -23.605066 405.342285
615.056091 133.086044 92.316643
669.330505 133.086060 0.000000
244.206284 133.085983 586.059814
494.454834 133.085999 488.627930
0.000000 133.085983 594.712158
600.709778 133.086029 244.867081
213.595016 -172.094391 -0.000026
272.519196 -88.781258 -0.000012
273.521088 -58.229908 14.474322
315.599762 -71.740402 7.213636
287.819183 -79.593796 4.934610
289.244049 -136.723282 -0.000003
-322.779205 64.324875 4.628156
-329.102783 64.324875 68.832932
-322.779266 64.324867 133.037231
-304.051544 64.324852 194.774689
-273.639282 64.324844 251.672318
-232.711105 64.324844 301.543457
-182.840042 64.324829 342.471710
-125.942528 64.324829 372.884033
-64.205109 64.324829 391.611969
-304.750000 64.324875 -22.070173
-0.000001 64.324829 397.935730
322.779205 64.324875 4.628156
329.102783 64.324875 68.832932
322.779266 64.324867 133.037231
304.051544 64.324852 194.774689
273.639282 64.324844 251.672318
232.711105 64.324844 301.543457
182.840057 64.324829 342.471710
125.942543 64.324829 372.884033
64.205116 64.324829 391.611969
304.750000 64.324875 -22.070173
0.000000 45.744816 -35.947868
-291.921570 64.324898 -32.414291
291.921570 64.324898 -32.414291
</float_array>
          <technique_common>
            <accessor source="#Entrance-POSITION-array" count="112" stride="3">
              <param name="X" type="float"/>
              <param name="Y" type="float"/>
              <param name="Z" type="float"/>
            </accessor>
          </technique_common>
        </source>
        <source id="Entrance-Normal0">
          <float_array id="Entrance-Normal0-array" count="1620">
0.940716 -0.000000 0.339197
1.000000 0.000000 0.000000
1.000000 -0.000000 0.000000
1.000000 -0.000000 0.000000
0.940716 0.000000 0.339197
0.940716 -0.000000 0.339197
1.000000 0.000000 0.000000
0.980785 0.000000 -0.195089
0.980786 0.000000 -0.195089
0.980786 0.000000 -0.195089
1.000000 -0.000000 0.000000
1.000000 0.000000 0.000000
0.980785 0.000000 -0.195089
0.923880 0.000000 -0.382682
0.923880 0.000000 -0.382682
0.923880 0.000000 -0.382682
0.980786 0.000000 -0.195089
0.980785 0.000000 -0.195089
0.923880 0.000000 -0.382682
0.831470 0.000000 -0.555569
0.831470 0.000000 -0.555569
0.831470 0.000000 -0.555569
0.923880 0.000000 -0.382682
0.923880 0.000000 -0.382682
0.831470 0.000000 -0.555569
0.707108 0.000000 -0.707106
0.707108 0.000000 -0.707106
0.707108 0.000000 -0.707106
0.831470 0.000000 -0.555569
0.831470 0.000000 -0.555569
0.707108 0.000000 -0.707106
0.555572 0.000000 -0.831469
0.555572 0.000000 -0.831469
0.555572 0.000000 -0.831469
0.707108 0.000000 -0.707106
0.707108 0.000000 -0.707106
0.555572 0.000000 -0.831469
0.382684 0.000000 -0.923879
0.382684 0.000000 -0.923879
0.382684 0.000000 -0.923879
0.555572 0.000000 -0.831469
0.555572 0.000000 -0.831469
0.382684 0.000000 -0.923879
0.195091 0.000000 -0.980785
0.195091 0.000000 -0.980785
0.195091 0.000000 -0.980785
0.382684 0.000000 -0.923879
0.382684 0.000000 -0.923879
0.195091 0.000000 -0.980785
0.000000 0.000000 -1.000000
0.000000 0.000000 -1.000000
0.000000 0.000000 -1.000000
0.195091 0.000000 -0.980785
0.195091 0.000000 -0.980785
0.736392 0.000000 0.676555
0.940716 -0.000000 0.339197
0.940716 0.000000 0.339197
0.940716 0.000000 0.339197
0.736392 0.000000 0.676555
0.736392 0.000000 0.676555
0.332826 -0.000000 0.942988
0.736392 0.000000 0.676555
0.736392 0.000000 0.676555
0.736392 0.000000 0.676555
0.163881 -0.000000 0.986480
0.332826 -0.000000 0.942988
0.000000 -0.000000 1.000000
0.332826 -0.000000 0.942988
0.163881 -0.000000 0.986480
0.163881 -0.000000 0.986480
0.000000 -0.000000 1.000000
0.000000 -0.000000 1.000000
-0.000000 -1.000000 -0.000000
-0.000000 -1.000000 -0.000000
-0.000000 -1.000000 -0.000000
0.000000 -1.000000 0.000000
0.000000 -1.000000 0.000000
0.000000 -1.000000 0.000000
0.000000 -1.000000 0.000000
0.000000 -1.000000 0.000000
0.000000 -1.000000 0.000000
-0.000000 -1.000000 0.000000
-0.000000 -1.000000 0.000000
-0.000000 -1.000000 0.000000
-0.000000 -1.000000 -0.000000
-0.000000 -1.000000 -0.000000
-0.000000 -1.000000 -0.000000
0.000000 -1.000000 -0.000000
0.000000 -1.000000 -0.000000
0.000000 -1.000000 -0.000000
0.000000 -1.000000 -0.000000
0.000000 -1.000000 -0.000000
0.000000 -1.000000 -0.000000
0.000000 -1.000000 -0.000002
0.000000 -1.000000 -0.000002
0.000000 -1.000000 -0.000002
-0.366542 -0.609118 0.703294
-0.735791 -0.537308 0.412204
-0.623449 -0.735465 0.265334
-0.623449 -0.735465 0.265334
-0.630320 -0.615286 0.473413
-0.366542 -0.609118 0.703294
0.000000 0.000000 1.000000
0.000000 0.000000 1.000000
0.000000 0.000000 1.000000
0.000000 0.000000 1.000000
0.000000 0.000000 1.000000
0.000000 0.000000 1.000000
-0.623449 -0.735465 0.265334
-0.485011 -0.856689 0.175634
-0.469542 -0.826862 0.309563
-0.469542 -0.826862 0.309563
-0.630320 -0.615286 0.473413
-0.623449 -0.735465 0.265334
-0.363593 -0.808814 0.462190
-0.093944 -0.731791 0.675024
-0.497085 -0.725872 0.475412
0.000000 -0.763148 0.646223
0.000000 -0.770452 0.637498
-0.093944 -0.731791 0.675024
-0.093944 -0.731791 0.675024
-0.363593 -0.808814 0.462190
0.000000 -0.763148 0.646223
-0.363593 -0.808814 0.462190
-0.497085 -0.725872 0.475412
-0.543857 -0.834423 0.089207
0.000000 -0.000000 1.000000
0.163881 -0.000000 0.986480
0.000000 0.000000 1.000000
0.000000 0.000000 1.000000
0.000000 0.000000 1.000000
0.000000 -0.000000 1.000000
0.163881 -0.000000 0.986480
0.143296 -0.160617 0.976559
0.130739 -0.061043 0.989536
0.130739 -0.061043 0.989536
0.000000 0.000000 1.000000
0.163881 -0.000000 0.986480
0.000000 -1.000000 -0.000000
0.000000 -1.000000 -0.000000
0.000000 -1.000000 -0.000000
-1.000000 0.000000 -0.000000
-1.000000 0.000000 -0.000000
-1.000000 0.000000 -0.000000
-1.000000 0.000000 -0.000000
-1.000000 0.000000 -0.000000
-1.000000 0.000000 -0.000000
-0.623449 -0.735465 0.265334
-0.363593 -0.808814 0.462190
-0.543857 -0.834423 0.089207
-0.543857 -0.834423 0.089207
-0.485011 -0.856689 0.175634
-0.623449 -0.735465 0.265334
-0.000000 -1.000000 -0.000000
-0.000000 -1.000000 -0.000000
-0.000000 -1.000000 -0.000000
-0.000000 -1.000000 -0.000000
-0.000000 -1.000000 -0.000000
-0.000000 -1.000000 -0.000000
-0.000000 -1.000000 -0.000000
-0.000000 -1.000000 -0.000000
-0.000000 -1.000000 -0.000000
-0.000000 -1.000000 -0.000000
-0.000000 -1.000000 -0.000000
-0.000000 -1.000000 -0.000000
0.323781 -0.662148 0.675815
-0.735791 -0.537308 0.412204
0.085880 -0.621021 0.779075
0.137482 -0.241146 0.960702
0.085880 -0.621021 0.779075
0.013757 -0.051213 0.998593
-0.735791 -0.537308 0.412204
-0.366542 -0.609118 0.703294
0.085880 -0.621021 0.779075
0.137482 -0.241146 0.960702
0.143296 -0.160617 0.976559
0.323781 -0.662148 0.675815
0.323781 -0.662148 0.675815
0.085880 -0.621021 0.779075
0.137482 -0.241146 0.960702
0.085880 -0.621021 0.779075
-0.366542 -0.609118 0.703294
0.013757 -0.051213 0.998593
0.130739 -0.061043 0.989536
0.143296 -0.160617 0.976559
0.137482 -0.241146 0.960702
0.000000 -1.000000 0.000000
0.000000 -1.000000 0.000000
0.000000 -1.000000 0.000000
-0.000000 -1.000000 0.000000
-0.000000 -1.000000 0.000000
-0.000000 -1.000000 0.000000
0.137482 -0.241146 0.960702
0.013757 -0.051213 0.998593
0.130739 -0.061043 0.989536
0.130739 -0.061043 0.989536
0.013757 -0.051213 0.998593
0.000000 0.000000 1.000000
-0.940716 -0.000000 0.339197
-0.940716 0.000000 0.339197
-1.000000 -0.000000 0.000000
-1.000000 -0.000000 0.000000
-1.000000 0.000000 0.000000
-0.940716 -0.000000 0.339197
-1.000000 0.000000 0.000000
-1.000000 -0.000000 0.000000
-0.980786 0.000000 -0.195089
-0.980786 0.000000 -0.195089
-0.980785 0.000000 -0.195089
-1.000000 0.000000 0.000000
-0.980785 0.000000 -0.195089
-0.980786 0.000000 -0.195089
-0.923880 0.000000 -0.382682
-0.923880 0.000000 -0.382682
-0.923880 0.000000 -0.382682
-0.980785 0.000000 -0.195089
-0.923880 0.000000 -0.382682
-0.923880 0.000000 -0.382682
-0.831470 0.000000 -0.555569
-0.831470 0.000000 -0.555569
-0.831470 0.000000 -0.555569
-0.923880 0.000000 -0.382682
-0.831470 0.000000 -0.555569
-0.831470 0.000000 -0.555569
-0.707108 0.000000 -0.707106
-0.707108 0.000000 -0.707106
-0.707108 0.000000 -0.707106
-0.831470 0.000000 -0.555569
-0.707108 0.000000 -0.707106
-0.707108 0.000000 -0.707106
-0.555572 0.000000 -0.831469
-0.555572 0.000000 -0.831469
-0.555572 0.000000 -0.831469
-0.707108 0.000000 -0.707106
-0.555572 0.000000 -0.831469
-0.555572 0.000000 -0.831469
-0.382684 0.000000 -0.923879
-0.382684 0.000000 -0.923879
-0.382684 0.000000 -0.923879
-0.555572 0.000000 -0.831469
-0.382684 0.000000 -0.923879
-0.382684 0.000000 -0.923879
-0.195091 0.000000 -0.980785
-0.195091 0.000000 -0.980785
-0.195091 0.000000 -0.980785
-0.382684 0.000000 -0.923879
-0.195091 0.000000 -0.980785
-0.195091 0.000000 -0.980785
0.000000 0.000000 -1.000000
0.000000 0.000000 -1.000000
0.000000 0.000000 -1.000000
-0.195091 0.000000 -0.980785
-0.736392 0.000000 0.676555
-0.736392 0.000000 0.676555
-0.940716 0.000000 0.339197
-0.940716 0.000000 0.339197
-0.940716 -0.000000 0.339197
-0.736392 0.000000 0.676555
-0.332826 -0.000000 0.942988
-0.163881 -0.000000 0.986480
-0.736392 0.000000 0.676555
-0.736392 0.000000 0.676555
-0.736392 0.000000 0.676555
-0.332826 -0.000000 0.942988
0.000000 -0.000000 1.000000
0.000000 -0.000000 1.000000
-0.163881 -0.000000 0.986480
-0.163881 -0.000000 0.986480
-0.332826 -0.000000 0.942988
0.000000 -0.000000 1.000000
0.000000 -1.000000 -0.000000
0.000000 -1.000000 -0.000000
0.000000 -1.000000 -0.000000
0.000000 -1.000000 0.000000
0.000000 -1.000000 0.000000
0.000000 -1.000000 0.000000
0.000000 -1.000000 0.000000
0.000000 -1.000000 0.000000
0.000000 -1.000000 0.000000
0.000000 -1.000000 -0.000000
0.000000 -1.000000 -0.000000
0.000000 -1.000000 -0.000000
0.000000 -1.000000 0.000000
0.000000 -1.000000 0.000000
0.000000 -1.000000 0.000000
-0.000000 -1.000000 -0.000000
-0.000000 -1.000000 -0.000000
-0.000000 -1.000000 -0.000000
-0.000000 -1.000000 -0.000000
-0.000000 -1.000000 -0.000000
-0.000000 -1.000000 -0.000000
-0.000000 -1.000000 -0.000002
-0.000000 -1.000000 -0.000002
-0.000000 -1.000000 -0.000002
0.366542 -0.609118 0.703294
0.630320 -0.615286 0.473413
0.623449 -0.735465 0.265334
0.623449 -0.735465 0.265334
0.735791 -0.537308 0.412204
0.366542 -0.609118 0.703294
0.000000 0.000000 1.000000
0.000000 0.000000 1.000000
0.000000 0.000000 1.000000
0.000000 0.000000 1.000000
0.000000 0.000000 1.000000
0.000000 0.000000 1.000000
0.623449 -0.735465 0.265334
0.630320 -0.615286 0.473413
0.469542 -0.826862 0.309563
0.469542 -0.826862 0.309563
0.485011 -0.856689 0.175634
0.623449 -0.735465 0.265334
0.363593 -0.808814 0.462190
0.497085 -0.725872 0.475412
0.093944 -0.731791 0.675024
0.000000 -0.763148 0.646223
0.093944 -0.731791 0.675024
0.000000 -0.770452 0.637498
0.093944 -0.731791 0.675024
0.000000 -0.763148 0.646223
0.363593 -0.808814 0.462190
0.363593 -0.808814 0.462190
0.543857 -0.834423 0.089207
0.497085 -0.725872 0.475412
0.000000 -0.000000 1.000000
0.000000 0.000000 1.000000
-0.000000 0.000000 1.000000
-0.000000 0.000000 1.000000
-0.163881 -0.000000 0.986480
0.000000 -0.000000 1.000000
-0.163881 -0.000000 0.986480
-0.000000 0.000000 1.000000
-0.130739 -0.061043 0.989536
-0.130739 -0.061043 0.989536
-0.143296 -0.160617 0.976559
-0.163881 -0.000000 0.986480
-0.000000 -1.000000 -0.000000
-0.000000 -1.000000 -0.000000
-0.000000 -1.000000 -0.000000
1.000000 0.000000 -0.000000
1.000000 0.000000 -0.000000
1.000000 0.000000 -0.000000
1.000000 0.000000 -0.000000
1.000000 0.000000 -0.000000
1.000000 0.000000 -0.000000
0.623449 -0.735465 0.265334
0.485011 -0.856689 0.175634
0.543857 -0.834423 0.089207
0.543857 -0.834423 0.089207
0.363593 -0.808814 0.462190
0.623449 -0.735465 0.265334
0.000000 -1.000000 -0.000000
0.000000 -1.000000 -0.000000
0.000000 -1.000000 -0.000000
0.000000 -1.000000 -0.000000
0.000000 -1.000000 -0.000000
0.000000 -1.000000 -0.000000
0.000000 -1.000000 -0.000000
0.000000 -1.000000 -0.000000
0.000000 -1.000000 -0.000000
0.000000 -1.000000 -0.000000
0.000000 -1.000000 -0.000000
0.000000 -1.000000 -0.000000
-0.323781 -0.662148 0.675815
-0.085880 -0.621021 0.779075
0.735791 -0.537308 0.412204
-0.137482 -0.241146 0.960702
-0.013757 -0.051213 0.998593
-0.085880 -0.621021 0.779075
0.735791 -0.537308 0.412204
-0.085880 -0.621021 0.779075
0.366542 -0.609118 0.703294
-0.137482 -0.241146 0.960702
-0.323781 -0.662148 0.675815
-0.143296 -0.160617 0.976559
-0.323781 -0.662148 0.675815
-0.137482 -0.241146 0.960702
-0.085880 -0.621021 0.779075
-0.085880 -0.621021 0.779075
-0.013757 -0.051213 0.998593
0.366542 -0.609118 0.703294
-0.130739 -0.061043 0.989536
-0.137482 -0.241146 0.960702
-0.143296 -0.160617 0.976559
0.000000 -1.000000 0.000000
0.000000 -1.000000 0.000000
0.000000 -1.000000 0.000000
0.000000 -1.000000 0.000000
0.000000 -1.000000 0.000000
0.000000 -1.000000 0.000000
-0.137482 -0.241146 0.960702
-0.130739 -0.061043 0.989536
-0.013757 -0.051213 0.998593
-0.130739 -0.061043 0.989536
-0.000000 0.000000 1.000000
-0.013757 -0.051213 0.998593
0.588871 0.808225 -0.001905
0.548264 0.810375 0.206638
0.552276 0.811012 0.193003
0.552276 0.811012 0.193003
0.588733 0.808326 0.001642
0.588871 0.808225 -0.001905
0.581584 0.804939 -0.117617
0.588871 0.808225 -0.001905
0.588733 0.808326 0.001642
0.588733 0.808326 0.001642
0.582141 0.805039 -0.114126
0.581584 0.804939 -0.117617
0.551517 0.801712 -0.230406
0.581584 0.804939 -0.117617
0.582141 0.805039 -0.114126
0.582141 0.805039 -0.114126
0.552696 0.801804 -0.227240
0.551517 0.801712 -0.230406
0.499423 0.798679 -0.335691
0.551517 0.801712 -0.230406
0.552696 0.801804 -0.227240
0.552696 0.801804 -0.227240
0.501051 0.798755 -0.333074
0.499423 0.798679 -0.335691
0.427029 0.795972 -0.429039
0.499423 0.798679 -0.335691
0.501051 0.798755 -0.333074
0.501051 0.798755 -0.333074
0.428852 0.796028 -0.427113
0.427029 0.795972 -0.429039
0.337008 0.793717 -0.506398
0.427029 0.795972 -0.429039
0.428852 0.796028 -0.427113
0.428852 0.796028 -0.427113
0.338732 0.793752 -0.505191
0.337008 0.793717 -0.506398
0.232903 0.792020 -0.564323
0.337008 0.793717 -0.506398
0.338732 0.793752 -0.505191
0.338732 0.793752 -0.505191
0.234243 0.792037 -0.563744
0.232903 0.792020 -0.564323
0.118975 0.790967 -0.600180
0.232903 0.792020 -0.564323
0.234243 0.792037 -0.563744
0.234243 0.792037 -0.563744
0.119707 0.790972 -0.600028
0.118975 0.790967 -0.600180
0.000000 0.790610 -0.612319
0.118975 0.790967 -0.600180
0.119707 0.790972 -0.600028
0.119707 0.790972 -0.600028
0.000000 0.790610 -0.612319
0.000000 0.790610 -0.612319
0.548264 0.810375 0.206638
0.450103 0.775863 0.442091
0.468616 0.783619 0.407849
0.468616 0.783619 0.407849
0.552276 0.811012 0.193003
0.548264 0.810375 0.206638
0.450103 0.775863 0.442091
0.410539 0.756463 0.509137
0.410539 0.756463 0.509138
0.410539 0.756463 0.509138
0.468616 0.783619 0.407849
0.450103 0.775863 0.442091
-0.548264 0.810375 0.206638
-0.588871 0.808225 -0.001905
-0.588733 0.808326 0.001642
-0.588733 0.808326 0.001642
-0.552276 0.811012 0.193003
-0.548264 0.810375 0.206638
-0.588871 0.808225 -0.001905
-0.581584 0.804939 -0.117617
-0.582141 0.805039 -0.114126
-0.582141 0.805039 -0.114126
-0.588733 0.808326 0.001642
-0.588871 0.808225 -0.001905
-0.581584 0.804939 -0.117617
-0.551516 0.801712 -0.230406
-0.552696 0.801804 -0.227240
-0.552696 0.801804 -0.227240
-0.582141 0.805039 -0.114126
-0.581584 0.804939 -0.117617
-0.551516 0.801712 -0.230406
-0.499423 0.798679 -0.335691
-0.501051 0.798755 -0.333074
-0.501051 0.798755 -0.333074
-0.552696 0.801804 -0.227240
-0.551516 0.801712 -0.230406
-0.499423 0.798679 -0.335691
-0.427029 0.795972 -0.429039
-0.428852 0.796028 -0.427113
-0.428852 0.796028 -0.427113
-0.501051 0.798755 -0.333074
-0.499423 0.798679 -0.335691
-0.427029 0.795972 -0.429039
-0.337008 0.793717 -0.506398
-0.338732 0.793752 -0.505191
-0.338732 0.793752 -0.505191
-0.428852 0.796028 -0.427113
-0.427029 0.795972 -0.429039
-0.337008 0.793717 -0.506398
-0.232903 0.792020 -0.564322
-0.234243 0.792037 -0.563743
-0.234243 0.792037 -0.563743
-0.338732 0.793752 -0.505191
-0.337008 0.793717 -0.506398
-0.232903 0.792020 -0.564322
-0.118975 0.790967 -0.600180
-0.119707 0.790972 -0.600028
-0.119707 0.790972 -0.600028
-0.234243 0.792037 -0.563743
-0.232903 0.792020 -0.564322
-0.118975 0.790967 -0.600180
0.000000 0.790610 -0.612319
0.000000 0.790610 -0.612319
0.000000 0.790610 -0.612319
-0.119707 0.790972 -0.600028
-0.118975 0.790967 -0.600180
-0.450102 0.775863 0.442091
-0.548264 0.810375 0.206638
-0.552276 0.811012 0.193003
-0.552276 0.811012 0.193003
-0.468616 0.783619 0.407849
-0.450102 0.775863 0.442091
-0.410539 0.756463 0.509137
-0.450102 0.775863 0.442091
-0.468616 0.783619 0.407849
-0.468616 0.783619 0.407849
-0.410539 0.756463 0.509138
-0.410539 0.756463 0.509137
0.000000 0.617880 0.786272
0.000000 0.617880 0.786272
0.000000 0.617880 0.786272
0.041707 0.489655 0.870918
0.041707 0.489655 0.870918
0.041707 0.489655 0.870918
0.000000 0.450008 0.893024
0.000000 0.450008 0.893024
0.000000 0.450008 0.893024
-0.048786 0.617144 0.785336
-0.048786 0.617144 0.785336
-0.048786 0.617144 0.785336
</float_array>
          <technique_common>
            <accessor source="#Entrance-Normal0-array" count="540" stride="3">
              <param name="X" type="float"/>
              <param name="Y" type="float"/>
              <param name="Z" type="float"/>
            </accessor>
          </technique_common>
        </source>
        <source id="Entrance-UV0">
          <float_array id="Entrance-UV0-array" count="352">
0.774301 0.937046
0.715874 0.937045
0.715876 0.864973
0.774302 0.864974
0.657449 0.937043
0.657450 0.864972
0.599024 0.937041
0.599025 0.864971
0.540599 0.937039
0.540601 0.864971
0.691509 0.276863
0.743033 0.249323
0.002786 0.913661
0.002787 0.649311
0.448512 0.955722
0.443203 0.054690
0.875863 0.955727
0.443559 0.132835
0.411847 0.167994
0.391776 0.067122
0.063671 0.213774
0.002845 0.063674
0.542499 0.546282
0.074853 0.649312
0.482176 0.937037
0.074853 0.913661
0.482178 0.864971
0.423755 0.937035
0.423756 0.864971
0.365336 0.937033
0.365337 0.864972
0.306920 0.937031
0.306920 0.864973
0.248506 0.937028
0.248506 0.864974
0.803476 0.937046
0.803477 0.864975
0.667539 0.842321
0.346639 0.755882
0.215774 0.649312
0.229006 0.913661
0.969841 0.546382
0.074853 0.599684
0.969842 0.850570
0.111436 0.439575
0.542279 0.105080
0.493480 0.078676
0.529675 0.073712
0.537965 0.003054
0.571498 0.101118
0.550223 0.063682
0.818400 0.937047
0.818401 0.864975
0.112664 0.576386
0.171998 0.555687
0.875863 0.998579
0.448512 0.998574
0.987438 0.428879
0.788193 0.212261
0.825256 0.167100
0.852796 0.115576
0.987438 0.001529
0.869755 0.059670
0.875481 0.001529
0.485778 0.265878
0.495145 0.277495
0.485778 0.315506
0.519322 0.293821
0.577463 0.299547
0.503692 0.340044
0.635603 0.293822
0.555910 0.428878
0.016983 0.955710
0.037141 0.998563
0.774301 0.937046
0.715874 0.937045
0.715876 0.864973
0.774302 0.864974
0.657449 0.937043
0.657450 0.864972
0.599024 0.937041
0.599025 0.864971
0.540599 0.937039
0.540601 0.864971
0.482176 0.937037
0.482178 0.864971
0.423755 0.937035
0.423756 0.864971
0.365336 0.937033
0.365337 0.864972
0.306920 0.937031
0.306920 0.864973
0.248506 0.937028
0.248506 0.864974
0.803476 0.937046
0.803477 0.864975
0.818400 0.937047
0.818401 0.864975
0.002786 0.913661
0.002787 0.649311
0.074853 0.649312
0.074853 0.913661
0.691509 0.276863
0.743033 0.249323
0.987438 0.428879
0.788193 0.212261
0.825256 0.167100
0.852796 0.115576
0.987438 0.001529
0.869755 0.059670
0.875481 0.001529
0.485778 0.265878
0.495145 0.277495
0.485778 0.315506
0.443203 0.054690
0.443559 0.132835
0.411847 0.167994
0.391776 0.067122
0.448512 0.955722
0.875863 0.955727
0.875863 0.998579
0.448512 0.998574
0.063671 0.213774
0.002845 0.063674
0.542499 0.546282
0.667539 0.842321
0.346639 0.755882
0.969841 0.546382
0.969842 0.850570
0.111436 0.439575
0.215774 0.649312
0.229006 0.913661
0.074853 0.599684
0.112664 0.576386
0.519322 0.293821
0.577463 0.299547
0.503692 0.340044
0.016983 0.955710
0.037141 0.998563
0.635603 0.293822
0.555910 0.428878
0.542279 0.105080
0.493480 0.078676
0.529675 0.073712
0.537965 0.003054
0.571498 0.101118
0.550223 0.063682
0.171998 0.555687
0.774301 0.865101
0.715874 0.865100
0.657449 0.865098
0.599024 0.865096
0.540599 0.865094
0.482176 0.865092
0.423755 0.865090
0.365336 0.865088
0.306920 0.865086
0.248506 0.865084
0.803476 0.865102
0.818400 0.865102
0.715874 0.865100
0.774301 0.865101
0.657449 0.865098
0.599024 0.865096
0.540599 0.865094
0.482176 0.865092
0.423755 0.865090
0.365336 0.865088
0.306920 0.865086
0.248506 0.865084
0.803476 0.865102
0.818400 0.865102
0.002786 0.913661
0.002787 0.649311
0.002787 0.649311
0.002786 0.913661
</float_array>
          <technique_common>
            <accessor source="#Entrance-UV0-array" count="176" stride="2">
              <param name="S" type="float"/>
              <param name="T" type="float"/>
            </accessor>
          </technique_common>
        </source>
        <vertices id="Entrance-VERTEX">
          <input semantic="POSITION" source="#Entrance-POSITION"/>
        </vertices>
        <triangles count="180" material="Entrance_ncl1_1">
          <input semantic="VERTEX" offset="0" source="#Entrance-VERTEX"/>
          <input semantic="NORMAL" offset="1" source="#Entrance-Normal0"/>
          <input semantic="TEXCOORD" offset="2" set="0" source="#Entrance-UV0"/>
          <p> 20 0 0 21 1 1 3 2 2 3 3 2 2 4 3 20 5 0 21 6 1 22 7 4 4 8 5 4 9 5 3 10 2 21 11 1 22 12 4 23 13 6 5 14 7 5 15 7 4 16 5 22 17 4 23 18 6 24 19 8 6 20 9 6 21 9 5 22 7 23 23 6 24 24 8 25 25 24 7 26 26 7 27 26 6 28 9 24 29 8 25 30 24 26 31 27 8 32 28 8 33 28 7 34 26 25 35 24 26 36 27 27 37 29 9 38 30 9 39 30 8 40 28 26 41 27 27 42 29 28 43 31 10 44 32 10 45 32 9 46 30 27 47 29 28 48 31 43 49 33 63 50 34 63 51 34 10 52 32 28 53 31 29 54 35 20 55 0 2 56 3 2 57 3 11 58 36 29 59 35 19 60 51 29 61 35 11 62 36 11 63 36 1 64 52 19 65 51 18 66 12 19 67 13 1 68 23 1 69 23 0 70 25 18 71 12 5 72 10 6 73 11 13 74 57 6 75 11 7 76 58 13 77 57 7 78 58 8 79 59 13 80 57 8 81 59 9 82 60 44 83 61 44 84 61 13 85 57 8 86 59 9 87 60 10 88 62 44 89 61 10 90 62 63 91 63 44 92 61 1 93 64 11 94 65 39 95 66 12 96 15 35 97 17 36 98 18 36 99 18 14 100 19 12 101 15 13 102 14 44 103 16 74 104 55 74 105 55 15 106 56 13 107 14 36 108 18 37 109 20 16 110 21 16 111 21 14 112 19 36 113 18 15 114 22 30 115 37 17 116 38 74 117 41 80 118 43 30 119 37 30 120 37 15 121 22 74 122 41 15 123 22 17 124 38 31 125 44 0 126 25 1 127 23 33 128 39 33 129 39 32 130 40 0 131 25 1 132 23 39 133 42 42 134 53 42 135 53 33 136 39 1 137 23 2 138 67 3 139 68 38 140 69 35 141 72 13 142 14 15 143 56 15 144 56 36 145 73 35 146 72 36 147 18 15 148 22 31 149 44 31 150 44 37 151 20 36 152 18 4 153 70 5 154 10 13 155 57 3 156 68 4 157 70 13 158 57 3 159 68 13 160 57 35 161 71 3 162 68 35 163 71 38 164 69 38 165 45 35 166 17 40 167 46 41 168 47 40 169 46 34 170 48 35 171 17 12 172 15 40 173 46 41 174 47 39 175 49 38 176 45 38 177 45 40 178 46 41 179 47 40 180 46 12 181 15 34 182 48 42 183 50 39 184 49 41 185 47 2 186 67 38 187 69 39 188 66 39 189 66 11 190 65 2 191 67 41 192 47 34 193 48 42 194 50 42 195 53 34 196 54 33 197 39 45 198 74 48 199 77 47 200 76 47 201 76 46 202 75 45 203 74 46 204 75 47 205 76 50 206 79 50 207 79 49 208 78 46 209 75 49 210 78 50 211 79 52 212 81 52 213 81 51 214 80 49 215 78 51 216 80 52 217 81 54 218 83 54 219 83 53 220 82 51 221 80 53 222 82 54 223 83 56 224 85 56 225 85 55 226 84 53 227 82 55 228 84 56 229 85 58 230 87 58 231 87 57 232 86 55 233 84 57 234 86 58 235 87 60 236 89 60 237 89 59 238 88 57 239 86 59 240 88 60 241 89 62 242 91 62 243 91 61 244 90 59 245 88 61 246 90 62 247 91 63 248 93 63 249 93 43 250 92 61 251 90 64 252 94 65 253 95 48 254 77 48 255 77 45 256 74 64 257 94 66 258 96 67 259 97 65 260 95 65 261 95 64 262 94 66 263 96 18 264 98 0 265 101 67 266 100 67 267 100 66 268 99 18 269 98 52 270 102 68 271 104 54 272 103 54 273 103 68 274 104 56 275 105 56 276 105 68 277 104 58 278 106 58 279 106 68 280 104 44 281 108 44 282 108 60 283 107 58 284 106 60 285 107 44 286 108 62 287 109 62 288 109 44 289 108 63 290 110 67 291 111 69 292 113 65 293 112 70 294 114 73 295 117 72 296 116 72 297 116 71 298 115 70 299 114 68 300 118 75 301 121 74 302 120 74 303 120 44 304 119 68 305 118 72 306 116 73 307 117 77 308 123 77 309 123 76 310 122 72 311 116 75 312 124 79 313 126 78 314 125 74 315 127 78 316 125 80 317 128 78 318 125 74 319 127 75 320 124 75 321 124 81 322 129 79 323 126 0 324 101 32 325 131 82 326 130 82 327 130 67 328 100 0 329 101 67 330 100 82 331 130 83 332 133 83 333 133 69 334 132 67 335 100 48 336 134 84 337 136 47 338 135 71 339 137 72 340 138 75 341 121 75 342 121 68 343 118 71 344 137 72 345 116 76 346 122 81 347 129 81 348 129 75 349 124 72 350 116 47 351 135 84 352 136 71 353 140 47 354 135 71 355 140 68 356 104 68 357 104 52 358 102 50 359 139 47 360 135 68 361 104 50 362 139 84 363 141 85 364 142 71 365 115 86 366 143 87 367 144 85 368 142 71 369 115 85 370 142 70 371 114 86 372 143 84 373 141 69 374 145 84 375 141 86 376 143 85 377 142 85 378 142 87 379 144 70 380 114 83 381 146 86 382 143 69 383 145 48 384 134 65 385 112 69 386 113 69 387 113 84 388 136 48 389 134 86 390 143 83 391 146 87 392 144 83 393 133 82 394 130 87 395 147 21 396 1 20 397 0 88 398 148 88 399 148 89 400 149 21 401 1 22 402 4 21 403 1 89 404 149 89 405 149 90 406 150 22 407 4 23 408 6 22 409 4 90 410 150 90 411 150 91 412 151 23 413 6 24 414 8 23 415 6 91 416 151 91 417 151 92 418 152 24 419 8 25 420 24 24 421 8 92 422 152 92 423 152 93 424 153 25 425 24 26 426 27 25 427 24 93 428 153 93 429 153 94 430 154 26 431 27 27 432 29 26 433 27 94 434 154 94 435 154 95 436 155 27 437 29 28 438 31 27 439 29 95 440 155 95 441 155 96 442 156 28 443 31 43 444 33 28 445 31 96 446 156 96 447 156 98 448 157 43 449 33 20 450 0 29 451 35 97 452 158 97 453 158 88 454 148 20 455 0 29 456 35 19 457 51 110 458 159 110 459 159 97 460 158 29 461 35 45 462 74 46 463 75 100 464 160 100 465 160 99 466 161 45 467 74 46 468 75 49 469 78 101 470 162 101 471 162 100 472 160 46 473 75 49 474 78 51 475 80 102 476 163 102 477 163 101 478 162 49 479 78 51 480 80 53 481 82 103 482 164 103 483 164 102 484 163 51 485 80 53 486 82 55 487 84 104 488 165 104 489 165 103 490 164 53 491 82 55 492 84 57 493 86 105 494 166 105 495 166 104 496 165 55 497 84 57 498 86 59 499 88 106 500 167 106 501 167 105 502 166 57 503 86 59 504 88 61 505 90 107 506 168 107 507 168 106 508 167 59 509 88 61 510 90 43 511 92 98 512 169 98 513 169 107 514 168 61 515 90 64 516 94 45 517 74 99 518 161 99 519 161 108 520 170 64 521 94 66 522 96 64 523 94 108 524 170 108 525 170 111 526 171 66 527 96 19 528 13 18 529 12 109 530 172 109 531 172 110 532 173 19 533 13 18 534 98 66 535 99 111 536 174 111 537 174 109 538 175 18 539 98</p>
        </triangles>
      </mesh>
    </geometry>
  </library_geometries>
  <library_visual_scenes>
    <visual_scene id="Entrance" name="Entrance">
      <node name="Entrance" id="Entrance" layer="Entrance_ncl1_3" sid="Entrance">
        <matrix sid="matrix">1.000000 0.000000 0.000000 0.000000 0.000000 1.000000 0.000000 0.000000 0.000000 0.000000 1.000000 0.000000 0.000000 0.000000 0.000000 1.000000</matrix>
        <instance_geometry url="#Entrance-lib">
          <bind_material>
            <technique_common>
              <instance_material symbol="Entrance_ncl1_1" target="#Entrance_ncl1_1"/>
            </technique_common>
          </bind_material>
        </instance_geometry>
        <extra>
          <technique profile="FCOLLADA">
            <visibility>1.000000</visibility>
          </technique>
        </extra>
      </node>
      <extra>
        <technique profile="MAX3D">
          <frame_rate>30.000000</frame_rate>
        </technique>
        <technique profile="FCOLLADA">
          <start_time>0.000000</start_time>
          <end_time>3.333333</end_time>
        </technique>
      </extra>
    </visual_scene>
  </library_visual_scenes>
  <scene>
    <instance_visual_scene url="#Entrance"/>
  </scene>
</COLLADA>
